# xmcd
#
# Track frame offsets:
#	150
#	25876
#	48894
#	74023
#	94791
#	116536
#	133036
#	157296
#	179198
#	197642
#
# Disc length: 2897 seconds
#
# Revision: 1
# Processed by: cddbd v1.5.2PL0 Copyright (c) Steve Scherf et al.
# Submitted via: EZCDAudioConverter 8.0.2.1
#
DISCID=950b4f0a
DTITLE=Tuấn Vũ - Một Ngày Như Mọi Ngày
DYEAR=2012
DGENRE=Miscellaneous
TTITLE0=Một Ngày Như Mọi Ngày
TTITLE1=Vết thương cuối cùng
TTITLE2=Tiễn đưa
TTITLE3=Dấu chân địa đàng
TTITLE4=Biển nhớ
TTITLE5=Tưởng rằng đã quên
TTITLE6=Đà Lạt hoàng hôn
TTITLE7=Phố vắng em rồi
TTITLE8=Tiễn biệt
TTITLE9=Lệ đá
EXTD=
EXTT0=
EXTT1=
EXTT2=
EXTT3=
EXTT4=
EXTT5=
EXTT6=
EXTT7=
EXTT8=
EXTT9=
PLAYORDER=
